<mxfile host="app.diagrams.net" modified="2023-11-27T16:54:21.707Z" agent="Mozilla/5.0 (Windows NT 10.0; Win64; x64) AppleWebKit/537.36 (KHTML, like Gecko) Chrome/119.0.0.0 Safari/537.36" version="22.1.4" etag="vYBrUSPUuO7dqRSQXy2u" type="github">
  <diagram name="‫עמוד-1‬" id="A5hXTp5SVKHdmHFTLvz-">
    <mxGraphModel>
      <root>
        <mxCell id="0" />
        <mxCell id="1" parent="0" />
      </root>
    </mxGraphModel>
  </diagram>
</mxfile>
